# xmcd
#
# Track frame offsets: 
#        150
#        19584
#        49843
#        66178
#        88303
#        112002
#        142503
#        166033
#        180882
#        208201
#
# Disc length: 2978 seconds
#
# Revision: 0
# Processed by: cddbd v1.5.2PL0 Copyright (c) Steve Scherf et al.
# Submitted via: ExactAudioCopyFreeDBPlugin 1.0
#
DISCID=7e0ba00a
DTITLE=Jimmy "Duck" Holmes and Terry "Harmonica Bean" - Twice as Hard
DYEAR=2014
DGENRE=Blues
TTITLE0=She Moved across the water
TTITLE1=Hear me howlin'
TTITLE2=Boogie With me
TTITLE3=Wake up, woman
TTITLE4=Park your car
TTITLE5=Lonesome Church Bell
TTITLE6=Raise That Window
TTITLE7=She moves me
TTITLE8=Broke and Hungry
TTITLE9=Cheating and Lying Blues
EXTD=
EXTT0=
EXTT1=
EXTT2=
EXTT3=
EXTT4=
EXTT5=
EXTT6=
EXTT7=
EXTT8=
EXTT9=
PLAYORDER=
